<?xml version="1.0" encoding="utf-8"?>
<!-- Generator: Adobe Illustrator 16.0.0, SVG Export Plug-In . SVG Version: 6.00 Build 0)  -->
<!DOCTYPE svg PUBLIC "-//W3C//DTD SVG 1.1//EN" "http://www.w3.org/Graphics/SVG/1.1/DTD/svg11.dtd">
<svg version="1.1" id="Layer_1" xmlns="http://www.w3.org/2000/svg" xmlns:xlink="http://www.w3.org/1999/xlink" x="0px" y="0px"
	 width="2000px" height="2000px" viewBox="0 0 2000 2000" enable-background="new 0 0 2000 2000" xml:space="preserve">
<g>
	<linearGradient id="SVGID_1_" gradientUnits="userSpaceOnUse" x1="235.2568" y1="731.9434" x2="1657.4409" y2="1395.1187">
		<stop  offset="0" style="stop-color:#549A97"/>
		<stop  offset="1" style="stop-color:#003D73"/>
	</linearGradient>
	<path fill-rule="evenodd" clip-rule="evenodd" fill="url(#SVGID_1_)" d="M1082.981,1665.641l-61.531,184.598
		c-1.088,3.531-3.191,6.453-6.318,8.76c-3.121,2.311-6.859,3.463-11.205,3.463c-3.805,0-7.473-1.152-11.002-3.463
		c-3.531-2.307-5.707-5.229-6.52-8.76l-43.428-153.164l-44.594,153.164c-1.084,3.531-3.328,6.453-6.721,8.76
		c-3.396,2.311-7.133,3.463-11.209,3.463c-4.074,0-7.74-1.152-11.002-3.463c-3.258-2.307-5.568-5.229-6.924-8.76l-61.535-184.598
		c-1.9-7.879-1.766-14.193,0.408-18.949c2.174-4.752,6.793-7.131,13.854-7.131c4.617,0,8.492,1.225,11.613,3.67
		c3.127,2.443,5.637,6.52,7.541,12.225l47.021,145.732l43.85-147.363c1.357-4.348,3.533-7.813,6.521-10.391
		c2.986-2.582,7.063-3.873,12.225-3.873c4.891,0,8.898,1.291,12.02,3.873c3.123,2.578,5.23,6.043,6.316,10.391l40.613,148.785
		l47.404-147.154c3.262-10.596,9.512-15.895,18.748-15.895c7.064,0,11.816,2.514,14.26,7.541
		C1085.835,1652.127,1085.698,1658.307,1082.981,1665.641z M571.39,1825.381h-10.188c-6.52,0.271-11.818-3.057-15.891-9.984
		c-4.076-6.928-6.113-15.688-6.113-26.283v-226.57c-0.27-5.43-2.105-9.846-5.5-13.24c-3.398-3.396-7.813-5.096-13.246-5.096
		s-9.848,1.699-13.242,5.096c-3.396,3.395-5.096,7.811-5.096,13.24v226.57c0,14.398,2.516,27.096,7.539,38.102
		c5.025,11,12.023,19.627,20.984,25.875c8.967,6.248,19.154,9.371,30.564,9.371h2.855c6.789,0,12.428-1.697,16.906-5.092
		c4.484-3.396,6.863-7.811,7.133-13.244c-0.27-5.432-1.902-9.848-4.889-13.242C580.218,1827.484,576.28,1825.652,571.39,1825.381z
		 M1283.86,1693.352c9.916,17.115,15.006,36.404,15.281,57.865l-0.938-0.354c0.014,0.193,0.031,0.387,0.041,0.578l0.896-0.225
		v92.908c0,5.434-1.764,9.848-5.299,13.244c-3.531,3.395-8.014,5.092-13.445,5.092c-5.705,0.275-10.326-1.357-13.855-4.889
		c-3.533-3.531-5.299-8.014-5.299-13.447v-18.486c-0.045-0.012-0.094-0.02-0.139-0.031c-7.611,9.715-16.734,17.859-27.371,24.426
		c-15.619,9.645-33.479,14.33-53.58,14.061c-20.104,0.27-38.172-4.553-54.199-14.467c-16.027-9.916-28.729-23.432-38.104-40.547
		c-9.369-17.115-14.189-36.402-14.465-57.863c0-21.734,5.029-41.09,15.08-58.068c10.051-16.98,23.566-30.496,40.545-40.547
		c16.979-10.053,36.201-15.078,57.658-15.078c21.195,0,40.209,5.025,57.053,15.078
		C1260.563,1662.652,1273.944,1676.238,1283.86,1693.352z M1261.702,1800.553c-0.16-0.102-0.314-0.211-0.459-0.326v2.299
		C1261.401,1801.869,1261.548,1801.211,1261.702,1800.553z M1262.835,1753.93c-0.057-1.85-0.08-3.695-0.051-5.537
		c-0.629-14.084-4.063-26.795-10.301-38.131c-6.654-12.088-15.621-21.666-26.896-28.729c-11.271-7.063-24.248-10.596-38.918-10.596
		c-14.398,0.273-27.436,3.873-39.117,10.801s-20.918,16.367-27.709,28.32s-10.188,25.672-10.188,41.158
		c0.271,14.941,3.732,28.455,10.393,40.547c6.654,12.088,15.754,21.664,27.301,28.727c11.545,7.064,24.652,10.596,39.32,10.596
		c14.402-0.271,27.307-3.871,38.715-10.799c11.412-6.928,20.512-16.371,27.301-28.322
		C1259.071,1780.729,1262.45,1768.049,1262.835,1753.93z M1635.005,1825.381h-10.184c-6.521,0.271-11.818-3.057-15.893-9.984
		c-4.076-6.928-6.111-15.688-6.111-26.283v-226.57c-0.273-5.43-2.105-9.846-5.502-13.24c-3.398-3.396-7.814-5.096-13.244-5.096
		c-5.436,0-9.85,1.699-13.242,5.096c-3.398,3.395-5.096,7.811-5.096,13.24v226.57c0,14.398,2.514,27.096,7.535,38.102
		c5.027,11,12.025,19.627,20.986,25.875c8.967,6.248,19.156,9.371,30.566,9.371h2.85c6.795,0,12.43-1.697,16.912-5.092
		c4.482-3.396,6.861-7.811,7.133-13.244c-0.271-5.432-1.902-9.848-4.895-13.242
		C1643.835,1827.484,1639.897,1825.652,1635.005,1825.381z M475.831,1544.207c-18.201,0-34.023,4.008-47.473,12.023
		c-13.445,8.012-23.836,19.219-31.174,33.617c-7.334,14.398-11,31.24-11,50.529v6.797c-0.195,0.168-0.377,0.348-0.551,0.539h-20.232
		c-5.162,0-9.305,1.494-12.432,4.482c-3.121,2.986-4.686,6.926-4.686,11.814c0,4.621,1.564,8.424,4.686,11.412
		c3.127,2.988,7.27,4.482,12.432,4.482h20.037c0.24,0.215,0.488,0.418,0.746,0.609v163.203c0,5.705,1.832,10.256,5.5,13.652
		c3.666,3.395,7.811,5.092,12.428,5.092c6.248,0,11.07-1.697,14.469-5.092c3.395-3.396,5.094-7.947,5.094-13.652v-163.49
		c0.367-0.086,0.721-0.193,1.059-0.322h43.357c5.16,0,9.371-1.494,12.631-4.482s4.891-6.791,4.891-11.412
		c0-4.889-1.631-8.828-4.891-11.814c-3.26-2.988-7.471-4.482-12.631-4.482h-44.416v0.111c-0.012-0.008-0.016-0.018-0.025-0.027
		l-0.111-0.084h0.137v-10.189c0-11.953,2.104-22.344,6.316-31.172c4.209-8.83,10.186-15.688,17.928-20.58
		c7.742-4.889,17.045-7.334,27.912-7.334c5.434,0,9.918-1.697,13.449-5.094c3.531-3.395,5.297-7.4,5.297-12.02
		c0-4.891-1.766-8.967-5.297-12.227S481.265,1544.207,475.831,1544.207z M400.341,920.385c6.252,0.756,12.295-6.656,13.492-16.559
		c1.199-9.904-2.898-18.547-9.15-19.303c-6.256-0.758-12.297,6.656-13.498,16.559C389.989,910.986,394.087,919.627,400.341,920.385z
		 M1532.743,1693.148c9.371,16.979,14.059,36.197,14.059,57.66c0,21.461-4.957,40.75-14.873,57.865
		c-9.916,17.113-23.365,30.629-40.344,40.547c-16.98,9.914-36.199,14.873-57.658,14.873c-21.193,0-40.275-4.893-57.258-14.672
		c-16.977-9.779-30.355-23.227-40.135-40.342c-9.781-17.115-14.807-36.268-15.08-57.457v-188.67c0-5.705,1.768-10.256,5.299-13.65
		c3.531-3.396,8.014-5.096,13.447-5.096c5.705,0,10.254,1.699,13.65,5.096c3.396,3.395,5.096,7.945,5.096,13.65v114.098
		c9.506-11.953,21.188-21.461,35.043-28.523c13.855-7.064,29.342-10.596,46.457-10.596c20.102,0,38.168,4.957,54.197,14.873
		C1510.669,1662.723,1523.37,1676.168,1532.743,1693.148z M1510.126,1750.809c0-15.213-3.328-28.797-9.982-40.75
		c-6.656-11.953-15.76-21.393-27.305-28.32c-11.543-6.928-24.518-10.391-38.912-10.391c-14.4,0-27.373,3.463-38.918,10.391
		s-20.578,16.367-27.098,28.32c-6.518,11.953-9.781,25.537-9.781,40.75c0,15.211,3.264,28.863,9.781,40.955
		c6.52,12.088,15.553,21.596,27.098,28.523s24.518,10.391,38.918,10.391c14.395,0,27.369-3.463,38.912-10.391
		c11.545-6.928,20.648-16.436,27.305-28.523C1506.798,1779.672,1510.126,1766.02,1510.126,1750.809z M791.481,1692.334
		c9.646,16.979,14.602,36.605,14.873,58.883c0,22.004-4.887,41.494-14.668,58.475c-9.781,16.979-23.092,30.291-39.936,39.936
		c-16.842,9.645-36.133,14.602-57.865,14.873c-22.002-0.271-41.496-5.229-58.473-14.873c-16.98-9.645-30.295-22.957-39.936-39.936
		c-9.646-16.98-14.602-36.471-14.875-58.475c0.273-22.277,5.229-41.904,14.875-58.883c9.641-16.979,22.955-30.291,39.936-39.936
		c16.977-9.645,36.471-14.602,58.473-14.875c21.463,0.273,40.684,5.23,57.662,14.875
		C768.528,1662.043,781.837,1675.355,791.481,1692.334z M770.087,1751.217c-0.27-15.486-3.598-29.271-9.982-41.359
		c-6.385-12.092-15.35-21.531-26.895-28.324c-11.547-6.791-24.652-10.322-39.324-10.596c-14.939,0.273-28.184,3.805-39.73,10.596
		c-11.543,6.793-20.578,16.232-27.098,28.324c-6.521,12.088-9.914,25.873-10.189,41.359c0.275,15.482,3.668,29.201,10.189,41.156
		c6.52,11.953,15.555,21.326,27.098,28.117c11.547,6.791,24.791,10.324,39.73,10.596c14.672-0.271,27.777-3.805,39.324-10.596
		c11.545-6.791,20.51-16.164,26.895-28.117C766.489,1780.418,769.817,1766.699,770.087,1751.217z M1543.784,1055.877
		c-6.91,7.189-8.832,16.557-4.289,20.924c4.539,4.365,13.826,2.076,20.738-5.115s8.834-16.561,4.293-20.928
		C1559.983,1046.393,1550.698,1048.682,1543.784,1055.877z M1210.688,753.346c0,90.396-421.381,90.396-421.381,0
		c0-98.047,100.732-148.129,203.693-150.301h13.996C1109.96,605.215,1210.688,655.299,1210.688,753.346z M941.501,752.023
		c0-16.316-5.869-31.174-15.355-42.008c-9.797-11.186-23.408-18.105-38.512-18.105c-10.289,0-19.908,3.225-28.115,8.836
		c-8.256,5.645-15.051,13.74-19.584,23.383c-2.291,4.902-0.174,10.734,4.727,13.027c4.902,2.291,10.734,0.176,13.023-4.727
		c3.02-6.418,7.49-11.775,12.9-15.471c4.996-3.416,10.828-5.379,17.049-5.379c9.215,0,17.619,4.338,23.76,11.346
		c6.449,7.363,10.438,17.645,10.438,29.098c0,5.43,4.404,9.834,9.834,9.834C937.097,761.857,941.501,757.453,941.501,752.023z
		 M1160.063,724.129c-4.535-9.643-11.326-17.738-19.582-23.383c-8.209-5.611-17.828-8.836-28.115-8.836
		c-15.102,0-28.715,6.92-38.512,18.105c-9.486,10.834-15.357,25.691-15.357,42.008c0,5.43,4.406,9.834,9.836,9.834
		c5.434,0,9.834-4.404,9.834-9.834c0-11.453,3.992-21.734,10.441-29.098c6.137-7.008,14.545-11.346,23.758-11.346
		c6.221,0,12.053,1.963,17.049,5.379c5.408,3.695,9.883,9.053,12.9,15.471c2.291,4.902,8.121,7.018,13.021,4.727
		C1160.237,734.863,1162.354,729.031,1160.063,724.129z M1086.401,1151.143c7.043,5.58,15.613,6.498,19.135,2.051
		c3.525-4.449,0.672-12.582-6.371-18.162c-7.045-5.58-15.613-6.498-19.137-2.049
		C1076.503,1137.432,1079.358,1145.564,1086.401,1151.143z M401.735,969.232c-6.217,1.008-9.967,9.807-8.369,19.652
		c1.598,9.848,7.93,17.012,14.146,16.004c6.219-1.008,9.969-9.805,8.371-19.652S407.952,968.225,401.735,969.232z M1668.481,918.271
		c7.699,64.879-5.594,127.807-44.18,181.133c-21.357,29.516-48.438,53.502-78.846,72.521c11.133,11.713,21.086,24.223,29.408,37.623
		c41.496,66.828,36.355,152.984-24.951,206.039c-36.428,31.523-75.471,39.012-122.33,40.291c-4.086,0.111-9.922,0.221-15.881-0.344
		c-11.574,15.6-25.455,29.514-41.301,41.697c-11.367,8.736-23.559,16.387-36.305,22.943c-68.359,35.168-169.871,44.314-235.18-2.088
		c-56.621-40.23-81.328-118.092-53.893-182.629c15.744-37.041,53.832-68.006,94.408-73.877
		c-21.781-15.711-43.898-30.949-65.387-47.027c-23.65-17.699-46.563-36.721-65.129-59.855c-3.113-3.873-6.086-7.846-8.916-11.92
		c-2.834,4.074-5.809,8.047-8.92,11.92c-18.566,23.135-41.479,42.156-65.127,59.855c-21.49,16.078-43.605,31.316-65.387,47.027
		c40.574,5.871,78.664,36.836,94.408,73.877c27.434,64.537,2.727,142.398-53.893,182.629c-65.309,46.402-166.82,37.256-235.18,2.088
		c-32.813-16.879-58.682-38.863-77.643-64.568c-5.68,0.48-11.186,0.379-15.094,0.271c-46.859-1.279-85.902-8.768-122.33-40.291
		c-61.305-53.055-66.447-139.211-24.949-206.039c8.25-13.289,18.105-25.701,29.127-37.328
		c-30.602-19.066-57.848-43.148-79.314-72.816c-38.586-53.326-51.883-116.254-44.18-181.133
		c9.979-84.055,53.484-164.648,102.375-232.428c38.639-53.568,85.572-120.607,60.867-189.787c-1.459-4.082-2.928-8.854-4.904-13.229
		c-15.809,31.418-49.42,56.053-84.4,56.053c-26.781,0-51.701-9.734-69.578-30.023c-23.135-26.26-28.486-63.396-21.346-96.775
		c7.32-34.234,27.713-65.639,58.104-83.631c34.025-20.143,72.572-27.9,111.746-22.891c66.268,8.479,125.563,52.066,156.402,110.832
		c24.586-107.576,117.947-181.945,214.439-230.961c32.98-16.754,106.971-49.932,142.684-49.932c0.695,0,1.393,0.004,2.092,0.016
		c0.697-0.012,1.393-0.016,2.092-0.016c35.709,0,109.699,33.178,142.682,49.932c96.492,49.016,189.852,123.385,214.438,230.961
		c30.84-58.766,90.135-102.354,156.402-110.832c39.176-5.01,77.725,2.748,111.744,22.891c30.395,17.992,50.783,49.396,58.107,83.631
		c7.141,33.379,1.791,70.516-21.346,96.775c-17.879,20.289-42.799,30.023-69.576,30.023c-34.986,0-68.598-24.635-84.402-56.053
		c-1.98,4.375-3.447,9.146-4.906,13.229c-24.705,69.18,22.229,136.219,60.867,189.787
		C1614.993,753.623,1658.501,834.217,1668.481,918.271z M1334.62,600.27c-13.232,27.635-30.246,53.648-50.086,76.504
		c-1.738,2.006-3.508,3.99-5.297,5.951c21.648,35.645,25.844,76.969,3.814,114.525c-14.973,25.525-35.459,52.373-32.643,83.584
		c3.672,40.709,47.732,55.498,82.982,54.225c29.76-1.076,58.801-15.502,74.451-41.406c11.254-18.627,4.012-52.859-1.32-72.496
		c-6.053-22.285-14.441-43.568-23.012-64.959C1363.19,705.506,1343.333,654.064,1334.62,600.27z M616.491,756.197
		c-8.574,21.391-16.961,42.674-23.014,64.959c-5.334,19.637-12.576,53.869-1.32,72.496c15.652,25.904,44.689,40.33,74.451,41.406
		c35.246,1.273,79.309-13.516,82.98-54.225c2.816-31.211-17.67-58.059-32.641-83.584c-22.031-37.557-17.834-78.881,3.813-114.525
		c-1.789-1.961-3.557-3.945-5.299-5.951c-19.84-22.855-36.85-48.869-50.086-76.504C656.665,654.064,636.806,705.506,616.491,756.197
		z M487.39,1142.588c19.326-15.559,40.418-29.5,61.768-42.135c-13.666-5.408-26.268-12.211-40.119-21.533
		c-6.576-4.615-12.432-9.234-18.453-14.553c-27.338-25.229-42.949-47.869-54.551-83.344c-9.307-32.676-9.971-58.568-6.203-92.133
		c9.66-65.875,31.701-117.982,56.398-178.895c8.994-22.371,17.646-44.262,25.346-66.416c-12.527,22.533-27.686,44.725-43.629,66.826
		C311.058,927.912,365.71,1073.381,487.39,1142.588z M1543.847,1239.436c-45.777-75.711-100.406-114.605-176.088-154.508
		c-39.307-20.725-94.654-50.969-123.4-82.322c-11.676-12.732-4.492-15.768,6.746-7.752c36.791,26.238,102.135,60.037,139.625,79.191
		c7.051,3.602,14.082,7.26,21.059,10.977c1.27-0.203,2.525-0.42,3.77-0.654c23.545-6.186,40.693-13.699,60.939-27.334
		c5.684-3.988,10.775-7.986,15.99-12.568c23.592-21.633,37.154-40.754,47.521-71.15c8.586-28.801,9.33-51.898,6.52-81.643
		c-8.035-63.191-28.873-115.426-50.643-174.531c-18.314-50.313-34.809-97.816-42.229-151.127
		c-2.834-24.172-3.586-44.863,2.063-68.689c2.957-11.297,12.902-42.615,33.672-56.473c19.365-19.279,46.699-35.326,67.701-38.826
		c3.93-1.195,7.988-1.898,12.111-2.023c7.732-0.008,13.662,1.1,20.805,4.072c6.855,3.098,11.602,6.502,16.395,12.326
		c4.613,6.107,6.82,11.523,7.498,19.15c0.008,4.295-2.443,21.104-8.088,20.781c-1.371-0.979-2.465-13.666-4.389-18.492
		c-1.775-4.266-3.832-6.994-7.443-9.879c-3.494-2.594-6.615-3.936-10.832-4.965c-4.449-0.928-8.041-1.014-12.533-0.35
		c-4.463,0.807-7.74,2.006-11.604,4.389c-3.879,2.602-6.309,5.113-8.859,9.021c-2.201,3.658-3.445,6.834-4.568,10.943
		c-0.387,1.504-0.703,2.971-0.977,4.498c-0.162,1.074-0.297,2.107-0.414,3.1c5.547,19.146,25.982,42.297,50.35,42.297
		c68.611,0,65.828-100.105,11.426-132.314c-79.754-47.217-183.418,1.4-216.977,87.547c-6.035,15.488-10.365,31.732-13.168,47.957
		c-15.092,87.461,18.111,169.27,46.656,240.492c29.371,73.283,46.373,133.285,21.297,174.789
		c-19.744,32.68-58.416,59.828-108.873,61.652c-54.389,1.963-120.236-25.021-126.311-92.412c-0.371-4.105-0.482-8.148-0.377-12.127
		c-14.75,16.576-28.635,30.875-32.813,31.35c-6.578-14.697,40.313-79.117,52.08-95.559c7.117-13.191,14.6-24.16,19.354-32.262
		c16.652-28.393,6.699-55.523-4.65-73.354c-15.563-21.281-46.67-58.975-46.756-60.773c10.32-2.654,27.84,8.27,43.832,21.965
		c3.686-3.73,8.213-8.428,13.566-14.596c59.662-68.727,170.916-275.018-127.072-426.387
		c-46.975-23.863-90.137-38.715-111.881-43.592c-2.285-0.514-12.066-2.252-14.973-2.273c-1.682-0.012-7.58,0.787-8.832,1.451
		c-20.119,3.814-65.811,19.004-115.83,44.414C576.251,374.232,687.507,580.523,747.167,649.25
		c5.523,6.361,10.164,11.16,13.914,14.945c16.102-13.861,33.83-24.992,44.238-22.314c-0.094,1.99-38.25,48.023-51.182,67.014
		c-9.551,17.6-15.791,41.855-0.975,67.113c4.75,8.102,12.234,19.07,19.354,32.262c11.764,16.441,58.654,80.861,52.078,95.559
		c-4.178-0.475-18.064-14.773-32.814-31.35c0.107,3.979-0.004,8.021-0.373,12.127c-6.078,67.391-71.924,94.375-126.313,92.412
		c-50.459-1.824-89.131-28.973-108.873-61.652c-25.078-41.504-8.074-101.506,21.297-174.789
		c28.547-71.223,61.75-153.031,46.652-240.492c-2.799-16.225-7.131-32.469-13.166-47.957
		c-33.557-86.146-137.223-134.764-216.977-87.547c-54.4,32.209-57.186,132.314,11.43,132.314c24.363,0,44.801-23.15,50.352-42.297
		c-0.123-0.992-0.258-2.025-0.418-3.1c-0.273-1.527-0.59-2.994-0.98-4.498c-1.123-4.109-2.365-7.285-4.568-10.943
		c-2.545-3.908-4.977-6.42-8.855-9.021c-3.863-2.383-7.141-3.582-11.604-4.389c-4.494-0.664-8.084-0.578-12.533,0.35
		c-4.219,1.029-7.34,2.371-10.832,4.965c-3.613,2.885-5.668,5.613-7.445,9.879c-1.92,4.826-3.018,17.514-4.387,18.492
		c-5.646,0.322-8.1-16.486-8.088-20.781c0.676-7.627,2.885-13.043,7.494-19.15c4.795-5.824,9.543-9.229,16.398-12.326
		c7.141-2.973,13.072-4.08,20.805-4.072c5.92,0.178,10.785,0.994,15.822,2.756c20.582,4.67,46.121,20.158,64.391,38.494
		c15.959,14.736,29.867,40.201,34.021,56.072c5.652,23.826,4.898,44.518,2.063,68.689c-7.418,53.311-23.912,100.814-42.227,151.127
		c-21.77,59.105-42.607,111.34-50.646,174.531c-2.807,29.744-2.061,52.842,6.523,81.643c10.369,30.396,23.93,49.518,47.521,71.15
		c5.217,4.582,10.309,8.58,15.99,12.568c18.777,12.646,34.889,20.025,55.91,25.963c1.533-0.826,3.064-1.645,4.594-2.459
		c0.459,1.367,0.916,2.701,1.375,4.002c0.764,0.139,1.533,0.27,2.309,0.4c6.928-3.691,13.902-7.318,20.898-10.895
		c37.49-19.154,102.834-52.953,139.623-79.191c11.24-8.016,18.424-4.98,6.748,7.752c-28.75,31.354-84.092,61.598-123.4,82.322
		c-75.68,39.902-130.311,78.797-176.088,154.508c-12.197,22.443-16.984,41.59-16.646,67.113
		c4.359,82.068,67.555,115.738,142.002,113.34c-22.807-51.023-19.375-120.494,4.324-178.045
		c13.551-32.906,36.76-58.676,59.002-81.771c49.717-51.621,107.611-74.904,162.574-138.807
		c12.779-14.973,25.014-36.857,34.072-54.822c17.783-35.277,17.488-5.383,10.031,13.084
		c-48.283,119.58-184.148,151.166-232.928,275.15c-16.051,40.797-24.338,109.92,2.586,174.621
		c59.955,82.531,193.465,98.654,255.525,54.563c45.328-32.211,57.123-90.689,39.568-131.979
		c-12.611-29.67-44.959-49.316-69.488-49.316c-26.666,0-48.287,21.617-48.287,48.285s21.621,48.285,48.287,48.285
		c15.988,0,30.158-7.773,38.947-19.744c-3.217,14.475-9.666,25.693-18.145,33.967c-12.535,17.375-78.459,39.049-129.035,11.67
		c-33.15-17.945-49.904-51.461-53.031-88.676c-1.111-31.951,6.619-55.268,23.127-82.443
		c34.365-49.625,78.502-75.846,126.439-110.336c38.416-28.1,66.381-54.152,86.02-84.707c12.322-19.164,22.781-22.227,12.457,2.244
		c-18.949,44.912-65.947,81.768-84.93,97.174c-42.609,33.811-86.695,62.416-116.838,108.615
		c-12.992,22.484-19.234,41.641-17.916,67.738c2.947,30.473,16.617,54.676,40.443,68.629
		c-15.941-19.586-21.248-47.705-12.822-73.379c9.604-29.26,37.617-60.168,75.713-88.629
		c109.932-82.135,169.283-104.738,180.678-219.273c0.824-8.271,1.395-5.18,1.721-14.469h0.648c0.33,9.469,0.918,6.533,1.77,14.943
		c11.514,114.127,70.85,136.777,180.629,218.799c38.094,28.461,66.111,59.369,75.715,88.629
		c8.436,25.705,3.102,53.869-12.887,73.455c23.91-13.939,37.627-38.174,40.578-68.705c1.318-26.098-4.922-45.254-17.914-67.738
		c-30.146-46.199-74.23-74.805-116.84-108.615c-18.979-15.406-65.98-52.262-84.93-97.174c-10.324-24.471,0.137-21.408,12.457-2.244
		c19.641,30.555,47.604,56.607,86.02,84.707c47.936,34.49,92.072,60.711,126.441,110.336c16.504,27.176,24.236,50.492,23.123,82.443
		c-3.123,37.215-19.881,70.73-53.027,88.676c-50.371,27.27-115.961,5.883-128.883-11.455c-8.586-8.295-15.125-19.58-18.369-34.182
		c8.787,11.971,22.959,19.744,38.945,19.744c26.67,0,48.285-21.617,48.285-48.285s-21.615-48.285-48.285-48.285
		c-24.529,0-56.877,19.646-69.488,49.316c-17.551,41.289-5.762,99.768,39.568,131.979c62.121,44.137,195.83,27.936,255.705-54.809
		c26.795-64.633,18.508-133.629,2.479-174.375c-48.779-123.984-184.646-155.57-232.926-275.15
		c-7.457-18.467-7.754-48.361,10.029-13.084c9.061,17.965,21.293,39.85,34.074,54.822c54.959,63.902,112.855,87.186,162.57,138.807
		c22.246,23.096,45.455,48.865,59.002,81.771c23.699,57.551,27.131,127.021,4.326,178.045
		c74.445,2.398,137.643-31.271,142.002-113.34C1560.831,1281.025,1556.046,1261.879,1543.847,1239.436z M1532.052,710.406
		c-15.105-20.945-29.51-41.969-41.637-63.285c7.383,20.949,15.592,41.697,24.109,62.875c24.695,60.912,46.736,113.02,56.396,178.895
		c3.768,33.564,3.105,59.457-6.203,92.133c-11.602,35.475-27.211,58.115-54.551,83.344c-6.021,5.318-11.877,9.938-18.451,14.553
		c-13.854,9.322-26.453,16.125-40.123,21.533c21.24,12.568,42.223,26.43,61.463,41.889
		C1634.427,1073.033,1688.753,927.648,1532.052,710.406z M1580.755,827.918c5.197-2.279,6.486-10.801,2.877-19.029
		c-3.611-8.229-10.752-13.055-15.949-10.771c-5.195,2.277-6.484,10.797-2.877,19.027
		C1568.419,825.375,1575.558,830.197,1580.755,827.918z M1599.399,920.385c6.252-0.758,10.352-9.398,9.152-19.303
		c-1.199-9.902-7.24-17.316-13.496-16.559c-6.252,0.756-10.352,9.398-9.152,19.303
		C1587.103,913.729,1593.144,921.141,1599.399,920.385z M1598.001,969.232c-6.217-1.008-12.553,6.156-14.146,16.004
		c-1.6,9.848,2.15,18.645,8.369,19.652s12.551-6.156,14.148-16.004C1607.968,979.039,1604.22,970.24,1598.001,969.232z
		 M435.212,1050.758c-4.541,4.367-2.621,13.736,4.293,20.928c6.912,7.191,16.197,9.48,20.742,5.115
		c4.537-4.367,2.617-13.734-4.295-20.924C449.038,1048.682,439.753,1046.393,435.212,1050.758z M434.931,817.145
		c3.611-8.23,2.32-16.75-2.875-19.027c-5.197-2.283-12.338,2.543-15.947,10.771c-3.607,8.229-2.322,16.75,2.875,19.029
		S431.319,825.375,434.931,817.145z M780.353,1236.865c-4.941-3.908-13.963-0.736-20.152,7.086c-6.189,7.82-7.205,17.33-2.266,21.24
		c4.939,3.908,13.963,0.738,20.154-7.084S785.292,1240.777,780.353,1236.865z M831.431,1187.047
		c-8.117,5.799-11.729,14.654-8.07,19.779c3.664,5.125,13.213,4.582,21.326-1.215c8.121-5.797,11.73-14.652,8.068-19.779
		C849.099,1180.705,839.548,1181.248,831.431,1187.047z M1242.099,1265.191c4.938-3.91,3.924-13.42-2.264-21.24
		c-6.191-7.822-15.213-10.994-20.154-7.086c-4.939,3.912-3.928,13.42,2.264,21.242S1237.157,1269.1,1242.099,1265.191z
		 M1155.345,1205.611c8.117,5.797,17.664,6.34,21.326,1.215c3.66-5.125,0.049-13.98-8.068-19.779s-17.664-6.342-21.326-1.215
		S1147.228,1199.814,1155.345,1205.611z M900.868,1135.031c-7.043,5.58-9.898,13.713-6.373,18.162
		c3.525,4.447,12.092,3.529,19.137-2.051c7.045-5.578,9.895-13.711,6.371-18.16C916.481,1128.533,907.915,1129.451,900.868,1135.031
		z"/>
</g>
</svg>
