<svg id="Layer_1" data-name="Layer 1" xmlns="http://www.w3.org/2000/svg" viewBox="0 0 1723.83 1038.35"><defs><style>.cls-1{fill:#fff;stroke-width:7.53px;}.cls-1,.cls-13,.cls-14,.cls-15,.cls-6{stroke:#323c3c;}.cls-1,.cls-15,.cls-5,.cls-6,.cls-8,.cls-9{stroke-linecap:round;}.cls-1,.cls-13,.cls-14,.cls-15,.cls-5,.cls-8,.cls-9{stroke-linejoin:round;}.cls-2{fill:#f2f4f8;}.cls-3{fill:#00bab6;}.cls-4{fill:#92eeee;}.cls-13,.cls-14,.cls-15,.cls-5,.cls-6,.cls-8,.cls-9{fill:none;}.cls-5{stroke:#373d42;}.cls-5,.cls-6{stroke-width:5px;}.cls-6{stroke-miterlimit:10;}.cls-7{fill:#20d5d2;}.cls-8{stroke:#d5d9e0;}.cls-8,.cls-9{stroke-width:10px;}.cls-9{stroke:#20d5d2;}.cls-10{fill:#1191e6;}.cls-11{fill:#d5d9e0;}.cls-12{fill:#323c3c;}.cls-13,.cls-15{stroke-width:7.53px;}.cls-14{stroke-width:8.7px;}</style></defs><title>bosun-welcome</title><circle class="cls-1" cx="864.43" cy="187.25" r="148.74"/><path class="cls-2" d="M969.69,170.48a2.73,2.73,0,0,1-1.11,3.7l-17.75,9.55a2.72,2.72,0,0,1-3.69-1.11l-4.56-8.46L921.94,135.8l-4.57-8.48a2.71,2.71,0,0,1,1.1-3.68l17.75-9.57a2.75,2.75,0,0,1,3.7,1.11Z"/><path class="cls-3" d="M942.58,174.16a2.74,2.74,0,0,1-1.13,3.69l-49.6,26.7a2.75,2.75,0,0,1-3.73-1.12L885.19,198l-14.74-27.36-2.94-5.48a2.74,2.74,0,0,1,1.11-3.72l49.6-26.71a2.76,2.76,0,0,1,3.72,1.09Z"/><path class="cls-2" d="M885.19,198a2.83,2.83,0,0,1-1.16,3.81L839.24,225.9a2.82,2.82,0,0,1-3.83-1.14l-2.91-5.4-8.91-16.55-2.9-5.39a2.81,2.81,0,0,1,1.16-3.83l44.77-24.12a2.83,2.83,0,0,1,3.83,1.15Z"/><path class="cls-3" d="M832.5,219.36a2.82,2.82,0,0,1-1.14,3.82l-40.14,21.6a2.81,2.81,0,0,1-3.81-1.14L778.5,227.1a2.82,2.82,0,0,1,1.14-3.82l40.14-21.62a2.84,2.84,0,0,1,3.81,1.15Z"/><path class="cls-4" d="M790.43,249.27a2.65,2.65,0,0,1-1.07,3.6l-10.65,5.72a2.64,2.64,0,0,1-3.6-1.07l-15-27.8a2.67,2.67,0,0,1,1.08-3.6l10.64-5.73a2.67,2.67,0,0,1,3.61,1.08l3,5.63,8.91,16.54Z"/><path class="cls-5" d="M787.41,243.64l3,5.63a2.65,2.65,0,0,1-1.07,3.6l-10.65,5.72a2.64,2.64,0,0,1-3.6-1.07l-15-27.8a2.67,2.67,0,0,1,1.08-3.6l10.64-5.73a2.67,2.67,0,0,1,3.61,1.08l3,5.63"/><path class="cls-5" d="M823.59,202.81a2.84,2.84,0,0,0-3.81-1.15l-40.14,21.62a2.82,2.82,0,0,0-1.14,3.82l8.91,16.54a2.81,2.81,0,0,0,3.81,1.14l40.14-21.6a2.82,2.82,0,0,0,1.14-3.82"/><path class="cls-5" d="M870.45,170.62a2.83,2.83,0,0,0-3.83-1.15l-44.77,24.12a2.81,2.81,0,0,0-1.16,3.83l2.9,5.39,8.91,16.55,2.91,5.4a2.82,2.82,0,0,0,3.83,1.14L884,201.79a2.83,2.83,0,0,0,1.16-3.81"/><path class="cls-5" d="M921.94,135.8a2.76,2.76,0,0,0-3.72-1.09l-49.6,26.71a2.74,2.74,0,0,0-1.11,3.72l2.94,5.48L885.19,198l2.93,5.45a2.75,2.75,0,0,0,3.73,1.12l49.6-26.7a2.74,2.74,0,0,0,1.13-3.69"/><path class="cls-5" d="M942.58,174.16l4.56,8.46a2.72,2.72,0,0,0,3.69,1.11l17.75-9.55a2.73,2.73,0,0,0,1.11-3.7l-29.77-55.3a2.75,2.75,0,0,0-3.7-1.11l-17.75,9.57a2.71,2.71,0,0,0-1.1,3.68l4.57,8.48Z"/><circle class="cls-1" cx="1492.18" cy="703.5" r="148.74"/><path class="cls-2" d="M1584,778.81V793a5,5,0,0,1-5,5h-85.14l0-19.19Z"/><path class="cls-3" d="M1506.46,727.37a7.83,7.83,0,1,0,7.83-7.82A7.83,7.83,0,0,0,1506.46,727.37Zm0,31a7.83,7.83,0,1,0,7.83-7.83A7.83,7.83,0,0,0,1506.46,758.37Zm-12.84-31-.07-23.87h85.74v-.16a5,5,0,0,1,4.67,5v70.49h-90.19l-.06-20.44Z"/><path class="cls-2" d="M1579.29,703.34v.16h-85.74l-.11-38.76c25.35,0,31.89-12.17,32.37-50.78a5,5,0,0,1,5-5h19a5,5,0,0,1,5,5C1554.9,678.3,1550.9,701.22,1579.29,703.34Z"/><path class="cls-4" d="M1514.29,719.55a7.82,7.82,0,1,1-7.83,7.82A7.82,7.82,0,0,1,1514.29,719.55Z"/><path class="cls-4" d="M1514.29,750.54a7.83,7.83,0,1,1-7.83,7.83A7.83,7.83,0,0,1,1514.29,750.54Z"/><path class="cls-2" d="M1493.77,778.81l0,19.19h-88.41a5,5,0,0,1-5-5V778.81Z"/><path class="cls-3" d="M1493.71,758.37l.06,20.44h-93.36v-70.4a5,5,0,0,1,4.83-5l1.27-.06v.15h87l.07,23.87Zm-12.27,0a7.83,7.83,0,1,0-7.82,7.82A7.83,7.83,0,0,0,1481.44,758.37Zm0-31a7.83,7.83,0,1,0-7.82,7.82A7.82,7.82,0,0,0,1481.44,727.37Z"/><path class="cls-2" d="M1493.44,664.74l.11,38.76h-87v-.15c26.3-1.52,24.78-15.24,25-89.35a5,5,0,0,1,5-5h19a5,5,0,0,1,5,4.94C1461,653.4,1467.28,664.74,1493.44,664.74Z"/><path class="cls-4" d="M1473.62,719.55a7.82,7.82,0,1,1-7.83,7.82A7.82,7.82,0,0,1,1473.62,719.55Z"/><path class="cls-4" d="M1473.62,750.54a7.83,7.83,0,1,1-7.83,7.83A7.83,7.83,0,0,1,1473.62,750.54Z"/><polyline class="cls-5" points="1405.24 703.5 1406.51 703.5 1493.55 703.5 1579.29 703.5"/><polyline class="cls-5" points="1400.41 778.81 1493.77 778.81 1583.96 778.81"/><polyline class="cls-5" points="1493.44 664.74 1493.55 703.5 1493.62 727.37 1493.71 758.37 1493.77 778.81 1493.82 798"/><path class="cls-5" d="M1522.11,727.37a7.83,7.83,0,1,1-7.82-7.82A7.82,7.82,0,0,1,1522.11,727.37Z"/><path class="cls-5" d="M1481.44,727.37a7.83,7.83,0,1,1-7.82-7.82A7.82,7.82,0,0,1,1481.44,727.37Z"/><polyline class="cls-5" points="1481.44 727.37 1493.62 727.37 1506.46 727.37"/><path class="cls-5" d="M1522.11,758.37a7.83,7.83,0,1,1-7.82-7.83A7.82,7.82,0,0,1,1522.11,758.37Z"/><path class="cls-5" d="M1481.44,758.37a7.83,7.83,0,1,1-7.82-7.83A7.82,7.82,0,0,1,1481.44,758.37Z"/><polyline class="cls-5" points="1481.44 758.37 1493.71 758.37 1506.46 758.37"/><path class="cls-5" d="M1406.51,703.35c26.3-1.52,24.78-15.24,25-89.35a5,5,0,0,1,5-5h19a5,5,0,0,1,5,4.94c.45,39.46,6.73,50.8,32.89,50.8,25.35,0,31.89-12.17,32.37-50.78a5,5,0,0,1,5-5h19a5,5,0,0,1,5,5c.08,64.29-3.92,87.21,24.47,89.33a5,5,0,0,1,4.67,5V793a5,5,0,0,1-5,5H1405.41a5,5,0,0,1-5-5V708.41a5,5,0,0,1,4.83-5Z"/><circle class="cls-1" cx="236.67" cy="703.5" r="148.74"/><path class="cls-3" d="M321.3,756.69v14.44a4.74,4.74,0,0,1-4.74,4.74H253.37a16.7,16.7,0,0,0-33.4,0H156.78a4.74,4.74,0,0,1-4.74-4.74V756.69a4.74,4.74,0,0,1,4.74-4.73H316.56A4.74,4.74,0,0,1,321.3,756.69Z"/><path class="cls-2" d="M307.72,691.2V752H165.61V691.2c0-33.54,25.14-61.62,56.38-69.09a15.77,15.77,0,0,1-.13-2c0-9.21,5.59-14.8,14.81-14.8s14.81,5.59,14.81,14.8a15.75,15.75,0,0,1-.14,2C282.6,629.58,307.72,657.66,307.72,691.2Z"/><path class="cls-3" d="M253.37,775.87H220a16.7,16.7,0,0,1,33.4,0Z"/><path class="cls-4" d="M220,775.87h33.4a16.7,16.7,0,0,1-33.4,0Z"/><path class="cls-6" d="M253.37,775.87a16.7,16.7,0,0,1-33.4,0"/><path class="cls-6" d="M307.72,752V691.2c0-33.54-25.12-61.62-56.38-69.09a15.75,15.75,0,0,0,.14-2c0-9.21-5.59-14.8-14.81-14.8s-14.81,5.59-14.81,14.8a15.77,15.77,0,0,0,.13,2c-31.24,7.47-56.38,35.55-56.38,69.09V752h-8.83a4.74,4.74,0,0,0-4.74,4.73v14.44a4.74,4.74,0,0,0,4.74,4.74H316.56a4.74,4.74,0,0,0,4.74-4.74V756.69a4.74,4.74,0,0,0-4.74-4.73Z"/><line class="cls-6" x1="165.61" y1="751.96" x2="307.72" y2="751.96"/><path class="cls-6" d="M188.67,679.24c2.55-13,9.49-23.43,24.19-30.65"/><line class="cls-6" x1="187.72" y1="692.3" x2="187.72" y2="703.5"/><circle class="cls-1" cx="1299.8" cy="333.44" r="148.74"/><path class="cls-2" d="M1383.59,311.13v49c0,46.28-37.52,72.84-83.79,72.84s-83.8-26.56-83.8-72.84v-49s36.1,9.62,36.1,49H1236c0,31.37,22.66,46.48,52.48,51.82l3.79-106.87a20.51,20.51,0,0,0,15,0l3.79,106.87c29.83-5.34,52.47-20.45,52.47-51.82h-16.09C1347.49,320.75,1383.59,311.13,1383.59,311.13Z"/><path class="cls-2" d="M1350.06,275.65a10.28,10.28,0,1,1-8.85,15.51h-21.53a20.45,20.45,0,0,0,0-10.46h21.53A10.28,10.28,0,0,1,1350.06,275.65Z"/><path class="cls-2" d="M1329.92,238.49V245a4.58,4.58,0,0,1-4.57,4.56h-20l.59,16.77a20.83,20.83,0,0,0-12.31,0l.6-16.77h-20a4.57,4.57,0,0,1-4.56-4.56v-6.48a4.58,4.58,0,0,1,4.56-4.57h51.11A4.59,4.59,0,0,1,1329.92,238.49Z"/><path class="cls-3" d="M1319.68,280.7a20.45,20.45,0,0,1,0,10.46h-12.85l-.12-3.57a7,7,0,0,0,.19-1.66,7.25,7.25,0,0,0-.33-2.14l-.11-3.09Z"/><path class="cls-3" d="M1319.68,280.7h-13.22l-.51-14.4A20.61,20.61,0,0,1,1319.68,280.7Z"/><path class="cls-3" d="M1306.83,291.16h12.85a20.53,20.53,0,0,1-12.36,13.9Z"/><path class="cls-3" d="M1306.83,291.16l.49,13.9a20.51,20.51,0,0,1-15,0l.5-13.9H1295a7.11,7.11,0,0,0,9.61,0Z"/><path class="cls-7" d="M1306.71,287.59l.12,3.57h-2.23A7.15,7.15,0,0,0,1306.71,287.59Z"/><path class="cls-2" d="M1306.9,285.93a7,7,0,0,1-.19,1.66l-.14-3.8A7.25,7.25,0,0,1,1306.9,285.93Z"/><path class="cls-4" d="M1306.57,283.79l.14,3.8a7.15,7.15,0,0,1-2.11,3.57H1295a7.06,7.06,0,0,1-2.1-3.57l.13-3.8a7.2,7.2,0,0,1,2-3.09h9.61A7.11,7.11,0,0,1,1306.57,283.79Z"/><path class="cls-2" d="M1306.46,280.7l.11,3.09a7.11,7.11,0,0,0-2-3.09Z"/><path class="cls-3" d="M1306,266.3l.51,14.4h-1.86a7.08,7.08,0,0,0-9.61,0h-1.86l.51-14.4a20.83,20.83,0,0,1,12.31,0Z"/><path class="cls-2" d="M1304.6,280.7H1295a7.08,7.08,0,0,1,9.61,0Z"/><path class="cls-2" d="M1295,291.16h9.61a7.11,7.11,0,0,1-9.61,0Z"/><path class="cls-2" d="M1295,280.7a7.2,7.2,0,0,0-2,3.09l.11-3.09Z"/><path class="cls-2" d="M1295,291.16h-2.22l.12-3.57A7.06,7.06,0,0,0,1295,291.16Z"/><path class="cls-3" d="M1293.64,266.3l-.51,14.4h-13.22A20.61,20.61,0,0,1,1293.64,266.3Z"/><path class="cls-3" d="M1293.13,280.7l-.11,3.09a7.25,7.25,0,0,0-.33,2.14,7,7,0,0,0,.2,1.66l-.12,3.57h-12.86a20.75,20.75,0,0,1,0-10.46Z"/><path class="cls-2" d="M1293,283.79l-.13,3.8a7,7,0,0,1-.2-1.66A7.25,7.25,0,0,1,1293,283.79Z"/><path class="cls-3" d="M1292.77,291.16l-.5,13.9a20.53,20.53,0,0,1-12.36-13.9Z"/><path class="cls-2" d="M1258.37,280.7h21.54a20.75,20.75,0,0,0,0,10.46h-21.54a10.28,10.28,0,1,1,0-10.46Z"/><path class="cls-5" d="M1279.91,280.7h-21.54a10.28,10.28,0,1,0,0,10.46h21.54"/><path class="cls-5" d="M1319.68,291.16h21.53a10.28,10.28,0,1,0,0-10.46h-21.53"/><path class="cls-5" d="M1306,266.3l-.59-16.77h20a4.58,4.58,0,0,0,4.57-4.56v-6.48a4.59,4.59,0,0,0-4.57-4.57h-51.11a4.58,4.58,0,0,0-4.56,4.57V245a4.57,4.57,0,0,0,4.56,4.56h20l-.6,16.77"/><path class="cls-5" d="M1292.27,305.06l-3.79,106.87c-29.82-5.34-52.48-20.45-52.48-51.82h16.1c0-39.36-36.1-49-36.1-49v49c0,46.28,37.52,72.84,83.8,72.84s83.79-26.56,83.79-72.84v-49s-36.1,9.62-36.1,49h16.09c0,31.37-22.64,46.48-52.47,51.82l-3.79-106.87"/><path class="cls-5" d="M1319.68,280.7a20.55,20.55,0,0,1-12.36,24.36,20.51,20.51,0,0,1-15,0,20.57,20.57,0,0,1,1.37-38.76,20.83,20.83,0,0,1,12.31,0A20.61,20.61,0,0,1,1319.68,280.7Z"/><path class="cls-5" d="M1306.57,283.79a7.25,7.25,0,0,1,.33,2.14,7,7,0,0,1-.19,1.66,7.15,7.15,0,0,1-2.11,3.57,7.11,7.11,0,0,1-11.91-5.23,7.09,7.09,0,0,1,2.3-5.23,7.11,7.11,0,0,1,11.58,3.09Z"/><circle class="cls-1" cx="429.06" cy="333.44" r="148.74"/><path class="cls-3" d="M513.52,255.41s11.64,3.46,13.6,13.85a241.18,241.18,0,0,1-14.85,22.93c-2.41-9.83-12.15-12.91-12.58-13.05C504.7,271.21,508.58,263.25,513.52,255.41Z"/><path class="cls-2" d="M512.27,292.19h0c-5.36,7.29-11.67,14.85-18.07,20.22A49.82,49.82,0,0,0,487,295.37a96.19,96.19,0,0,0,12.68-16.23C500.12,279.28,509.86,282.36,512.27,292.19Z"/><path class="cls-2" d="M494.2,312.42c4,17.78-.27,38.09-12.59,47.2-15.29,11.34-32.24,4.75-54.76,5.69.6-5,.94-9.72,1.3-13.76,24,.28,37.23,7.9,48.18-8.84,3.83-5.87,5.58-13.61,5.17-21.15a33.51,33.51,0,0,0-5.33-16.94,22.22,22.22,0,0,0-7.33-6.91c-11-6.28-22.44-1.67-29,5.93-3.74,4.33-6.06,10.31-7.62,17l.16.95-.39.07c-4.94.85-9.85,1.48-14.66,2,0-.37.08-.72.13-1.07,1.42-10.9,1.22-15.09,7.17-24.63,9.15-14.67,33.36-22.88,50.14-13.87A34.7,34.7,0,0,1,487,295.37,49.82,49.82,0,0,1,494.2,312.42Z"/><path class="cls-2" d="M417.32,323.68c4.81-.55,9.72-1.18,14.66-2l.39-.07a126.6,126.6,0,0,0,21.3-5.44,92.38,92.38,0,0,0,22.5-11.52,33.51,33.51,0,0,1,5.33,16.94,97,97,0,0,1-28.61,11.77,165.27,165.27,0,0,1-23.25,3.61l-.26,0c-4.85.43-9.46.7-13.9,1-12.67.87-24,2-35.61,7.89-10.16,5.14-12,14.32-10.46,21.39a129.81,129.81,0,0,0-14.52,9.54l-.14-.19c-4.56-12.88-4.92-32.93,16-44C382.17,326.5,399.06,325.74,417.32,323.68Z"/><path class="cls-2" d="M429.38,337l.11,1.35c-.38,3.57-.71,7.13-1.07,10.54q-.14,1.29-.27,2.7c-.36,4-.7,8.78-1.3,13.76-2.1,17.37-7.45,37.63-28.66,41.24-13.58,2.31-27.78-3.53-36.74-15.45a117.08,117.08,0,0,1,15.82-10.66c6.84,8.35,13.16,12.9,21.58,9.3s11-10.83,12.77-22.54c.66-4.32,1.2-9.25,1.9-14.84.32-2.56.67-5.25,1.08-8.09q.4-2.85.75-5.37c0-.32.08-.63.13-.93h0C419.92,337.66,424.53,337.39,429.38,337Z"/><path class="cls-2" d="M377.27,380.44a117.08,117.08,0,0,0-15.82,10.66c-1.89,1.51-3.64,3-5.24,4.46a14.6,14.6,0,0,1-10.1-11.51c2.69-2.43,5.61-4.88,8.78-7.27a129.81,129.81,0,0,1,14.52-9.54,124.39,124.39,0,0,1,32.69-12.81,112.94,112.94,0,0,1,11.42-2.07c-.7,5.59-1.24,10.52-1.9,14.84a127.14,127.14,0,0,0-13.47,4A119,119,0,0,0,377.27,380.44Z"/><path class="cls-4" d="M356.21,395.56c-9.68,8.73-14.28,15.91-14.28,15.91-9.62-2.65-10.94-10.94-10.94-10.94a114.12,114.12,0,0,1,15.12-16.48A14.6,14.6,0,0,0,356.21,395.56Z"/><path class="cls-5" d="M361.45,391.1h0c9,11.92,23.16,17.76,36.74,15.45,21.21-3.61,26.56-23.87,28.66-41.24.6-5,.94-9.72,1.3-13.76q.14-1.41.27-2.7c.36-3.41.69-7,1.07-10.54"/><path class="cls-5" d="M476.17,304.62a92.38,92.38,0,0,1-22.5,11.52,126.6,126.6,0,0,1-21.3,5.44l-.39.07c-4.94.85-9.85,1.48-14.66,2-18.26,2.06-35.15,2.82-46.56,8.87-20.93,11.11-20.57,31.16-16,44"/><path class="cls-5" d="M512.27,292.19a241.18,241.18,0,0,0,14.85-22.93c-2-10.39-13.6-13.85-13.6-13.85-4.94,7.84-8.82,15.8-13.83,23.73A96.19,96.19,0,0,1,487,295.37"/><path class="cls-5" d="M494.13,312.49l.07-.07c6.4-5.37,12.71-12.93,18.07-20.22"/><path class="cls-5" d="M369.41,367.24c-1.54-7.07.3-16.25,10.46-21.39,11.58-5.87,22.94-7,35.61-7.89,4.44-.3,9-.57,13.9-1l.26,0a165.27,165.27,0,0,0,23.25-3.61,97,97,0,0,0,28.61-11.77"/><path class="cls-5" d="M415.48,338c-.05.3-.09.61-.13.93q-.35,2.52-.75,5.37c-.41,2.84-.76,5.53-1.08,8.09-.7,5.59-1.24,10.52-1.9,14.84-1.79,11.71-4.35,18.93-12.77,22.54s-14.74-.95-21.58-9.3h0"/><path class="cls-5" d="M426.85,365.31c22.52-.94,39.47,5.65,54.76-5.69,12.32-9.11,16.6-29.42,12.59-47.2A49.82,49.82,0,0,0,487,295.37a34.7,34.7,0,0,0-12.25-11.26c-16.78-9-41-.8-50.14,13.87-5.95,9.54-5.75,13.73-7.17,24.63-.05.35-.09.7-.13,1.07h0"/><path class="cls-5" d="M413.52,352.36a112.94,112.94,0,0,0-11.42,2.07,124.39,124.39,0,0,0-32.69,12.81,129.81,129.81,0,0,0-14.52,9.54c-3.17,2.39-6.09,4.84-8.78,7.27A114.12,114.12,0,0,0,331,400.53s1.32,8.29,10.94,10.94c0,0,4.6-7.18,14.28-15.91,1.6-1.45,3.35-2.95,5.24-4.46a117.08,117.08,0,0,1,15.82-10.66,119,119,0,0,1,20.88-9.23,127.14,127.14,0,0,1,13.47-4"/><path class="cls-5" d="M432.21,320.63c1.56-6.68,3.88-12.66,7.62-17,6.57-7.6,18.05-12.21,29-5.93a22.22,22.22,0,0,1,7.33,6.91,33.51,33.51,0,0,1,5.33,16.94c.41,7.54-1.34,15.28-5.17,21.15-10.95,16.74-24.16,9.12-48.18,8.84"/><path class="cls-5" d="M499.68,279.14h0c.43.14,10.17,3.22,12.58,13.05h0"/><path class="cls-5" d="M346.11,384.05a14.6,14.6,0,0,0,10.1,11.51"/><line class="cls-8" x1="555.02" y1="549.24" x2="555.02" y2="584.19"/><line class="cls-8" x1="572.49" y1="566.71" x2="537.54" y2="566.71"/><line class="cls-8" x1="687.46" y1="326.93" x2="687.46" y2="361.88"/><line class="cls-8" x1="704.94" y1="344.4" x2="669.99" y2="344.4"/><line class="cls-8" x1="1084.48" y1="96.02" x2="1084.48" y2="130.97"/><line class="cls-8" x1="1101.95" y1="113.49" x2="1067.01" y2="113.49"/><line class="cls-8" x1="1276.41" y1="760.09" x2="1276.41" y2="795.03"/><line class="cls-8" x1="1293.88" y1="777.56" x2="1258.94" y2="777.56"/><line class="cls-9" x1="312.98" y1="887.82" x2="312.98" y2="922.77"/><line class="cls-9" x1="330.45" y1="905.3" x2="295.5" y2="905.3"/><line class="cls-9" x1="1531.76" y1="326.93" x2="1531.76" y2="361.88"/><line class="cls-9" x1="1549.23" y1="344.4" x2="1514.28" y2="344.4"/><line class="cls-9" x1="216.21" y1="374.13" x2="216.21" y2="409.08"/><line class="cls-9" x1="233.68" y1="391.61" x2="198.74" y2="391.61"/><line class="cls-9" x1="992.55" y1="357.52" x2="992.55" y2="392.47"/><line class="cls-9" x1="1010.03" y1="374.99" x2="975.08" y2="374.99"/><path class="cls-10" d="M250.81,184.7c-14,0-36.24,18.44-36.24,36.24,0-17.53-21.4-36.24-36.24-36.24,14.84,0,36.24-16.31,36.24-36.24C214.57,168.39,236.82,184.7,250.81,184.7Z"/><path class="cls-10" d="M468.39,563.17c-14,0-36.24,18.44-36.24,36.24,0-17.53-21.4-36.24-36.25-36.24,14.85,0,36.25-16.31,36.25-36.24C432.15,546.86,454.4,563.17,468.39,563.17Z"/><path class="cls-10" d="M689,95.21c-14,0-36.24,18.44-36.24,36.24,0-17.53-21.4-36.24-36.24-36.24,14.84,0,36.24-16.3,36.24-36.24C652.71,78.91,675,95.21,689,95.21Z"/><path class="cls-10" d="M102,522.33c-14,0-36.24,18.44-36.24,36.24,0-17.53-21.4-36.24-36.24-36.24,14.84,0,36.24-16.3,36.24-36.24C65.79,506,88,522.33,102,522.33Z"/><path class="cls-10" d="M1550.53,184.7c-14,0-36.25,18.44-36.25,36.24,0-17.53-21.4-36.24-36.24-36.24,14.84,0,36.24-16.31,36.24-36.24C1514.28,168.39,1536.54,184.7,1550.53,184.7Z"/><path class="cls-10" d="M1156,546.3c-14,0-36.24,18.44-36.24,36.25,0-17.54-21.4-36.25-36.24-36.25,14.84,0,36.24-16.3,36.24-36.24C1119.78,530,1142,546.3,1156,546.3Z"/><path class="cls-11" d="M473,754.17c-7.88,0-20.41,10.39-20.41,20.41,0-9.87-12.06-20.41-20.41-20.41,8.35,0,20.41-9.18,20.41-20.41C452.56,745,465.09,754.17,473,754.17Z"/><path class="cls-11" d="M186,494.66c-7.88,0-20.42,10.39-20.42,20.41,0-9.87-12.05-20.41-20.41-20.41,8.36,0,20.41-9.18,20.41-20.41C165.61,485.48,178.15,494.66,186,494.66Z"/><path class="cls-11" d="M540.49,131c-7.87,0-20.41,10.38-20.41,20.41,0-9.88-12.05-20.41-20.41-20.41,8.36,0,20.41-9.18,20.41-20.41C520.08,121.79,532.62,131,540.49,131Z"/><path class="cls-11" d="M1249.73,123.72c-7.87,0-20.41,10.39-20.41,20.41,0-9.87-12-20.41-20.41-20.41,8.36,0,20.41-9.18,20.41-20.41C1229.32,114.54,1241.86,123.72,1249.73,123.72Z"/><path class="cls-11" d="M1259.67,566.71c-7.88,0-20.41,10.39-20.41,20.41,0-9.87-12.06-20.41-20.42-20.41,8.36,0,20.42-9.18,20.42-20.41C1239.26,557.53,1251.79,566.71,1259.67,566.71Z"/><path class="cls-11" d="M1632.77,474c-7.88,0-20.41,10.39-20.41,20.41,0-9.87-12.06-20.41-20.41-20.41,8.35,0,20.41-9.18,20.41-20.41C1612.36,464.81,1624.89,474,1632.77,474Z"/><path class="cls-4" d="M1123.92,677.45c7.22,15.08-.4,33.78-17,41.76l-14.38,6.89L1067.31,671l13.38-6.43C1097.33,656.61,1116.67,662.38,1123.92,677.45Z"/><path class="cls-3" d="M1056.32,743.45l-25.49-55-10.1-21.79,36.46-17.79,10.12,22.1,25.2,55.08,9.77,21.36-39.74,9.38Zm24.77-3.86a8,8,0,1,0-11.28.33A8,8,0,0,0,1081.09,739.59Z"/><path class="cls-12" d="M1080.75,728.32a8,8,0,1,1-11.27.33A8,8,0,0,1,1080.75,728.32Z"/><path class="cls-2" d="M1030.83,688.5l25.49,55-120.93,58,36.3,146.21H873.56l-.25-97.86,40.36-38.29-9-22.25,20.45-2.38-6.65-45.15,2-.3ZM906.65,930.43a8,8,0,1,0-11.27.35A8,8,0,0,0,906.65,930.43Zm-1.07-29.26a8,8,0,1,0-11.27.33A8,8,0,0,0,905.58,901.17Zm-1.73-30.37a8,8,0,1,0-11.29.34A8,8,0,0,0,903.85,870.8Z"/><path class="cls-4" d="M994.48,653.3A18.31,18.31,0,0,1,978.07,656a110.59,110.59,0,0,0,5.55-21.23,64.77,64.77,0,0,0,5.56-13.56,18.26,18.26,0,0,1,5.3,32.08Z"/><path class="cls-2" d="M883.2,466.4a10.26,10.26,0,1,0-.44-14.52,10.27,10.27,0,0,0,.44,14.52Zm-23.73-1.89a16.81,16.81,0,0,1-6.79.51l3.35,3.16,1.29-1.39Zm135.84-13.25-13.66,70.2-114.8-12.24L760.39,521.46l-13.75-62.57,119.44-32.73Z"/><polygon class="cls-3" points="980.27 554.33 936.97 554.5 845.83 554.85 836.82 554.88 768.73 555.13 750.09 555.21 760.39 521.46 866.85 509.22 981.65 521.46 994.88 554.27 980.27 554.33"/><path class="cls-10" d="M980.27,554.33c16.27,27.22,13.29,52.21,8.91,66.89a64.77,64.77,0,0,1-5.56,13.56s-6.2-41.88-36.65-62h0c-2-6.62-5.09-13-10-17.55v-.71Z"/><path class="cls-4" d="M833.2,721.69a112.11,112.11,0,0,1-65.3-66.43,109.77,109.77,0,0,1-4.41-15.6l0-.13s-.2-.44-.53-1.25c-.12-9.86,33.75-72.9,73.89-83.07v-.33l9,0L894,604.74S907.19,591.8,904.53,574c0,0,25.76,5.84,45.46,30.79,0,0,1.54-16.73-3-32h0c30.45,20.14,36.65,62,36.65,62A110.59,110.59,0,0,1,978.07,656q-1.74,4.68-3.88,9.15a112.21,112.21,0,0,1-58.84,55.61h0a112.21,112.21,0,0,1-82.12.92Zm-8.83-81.29c5.25-1.51,12-13.35,1.22-17.9-4-1.69-7,1.78-8.21,6C815.36,635.45,819,641.93,824.37,640.4Z"/><path class="cls-10" d="M947,572.76c4.58,15.25,3,32,3,32-19.7-25-45.46-30.79-45.46-30.79C907.19,591.8,894,604.74,894,604.74l-48.13-49.89L937,554.5v.71C941.86,559.78,945,566.14,947,572.76Z"/><polygon class="cls-3" points="918.44 741.73 925.09 786.88 904.63 789.25 913.67 811.5 873.31 849.8 873.11 774.16 915.34 720.77 915.35 720.77 918.44 741.73"/><path class="cls-4" d="M915.34,720.77l-42.23,53.39-39.89-52.47a112.21,112.21,0,0,0,82.12-.92Z"/><path class="cls-12" d="M906.32,919.16a8,8,0,1,1-11.27.33A8,8,0,0,1,906.32,919.16Z"/><path class="cls-12" d="M905.25,889.89a8,8,0,1,1-11.27.33A8,8,0,0,1,905.25,889.89Z"/><path class="cls-12" d="M903.52,859.53a8,8,0,1,1-11.29.33A8,8,0,0,1,903.52,859.53Z"/><path class="cls-12" d="M883.2,466.4h0a10.27,10.27,0,1,1,14.53-.42A10.26,10.26,0,0,1,883.18,466.39Z"/><path class="cls-2" d="M873.31,849.8l.25,97.86h-99L812.61,801l-121.2-58.13,27.19-54.13,109.53,52.52,2.68.32-5.44,45.33,20.46,2.38-9,22.25L873.11,850Zm-17.92,21a8,8,0,1,0-11.29.34A8,8,0,0,0,855.39,870.8Zm-1.74,30.37a8,8,0,1,0-11.28.33A8,8,0,0,0,853.65,901.17Zm-2.41,29.26a8,8,0,1,0-11.29.35A8,8,0,0,0,851.24,930.43Z"/><polygon class="cls-3" points="873.11 774.16 873.31 849.8 873.11 849.98 836.82 811.5 845.83 789.25 825.38 786.88 830.81 741.55 833.2 721.69 833.22 721.69 873.11 774.16"/><path class="cls-12" d="M855.05,859.53a8,8,0,1,1-11.28.33A8,8,0,0,1,855.05,859.53Z"/><path class="cls-12" d="M853.32,889.89a8,8,0,1,1-11.28.33A8,8,0,0,1,853.32,889.89Z"/><path class="cls-12" d="M850.89,919.16a8,8,0,1,1-11.27.33A8,8,0,0,1,850.89,919.16Z"/><path class="cls-10" d="M757.48,620.39c-3.82-17.55-5.4-44,11.25-65.24v0l68.09-.25v.33c-40.14,10.17-74,73.21-73.89,83.07A112.42,112.42,0,0,1,757.48,620.39Z"/><path class="cls-12" d="M825.59,622.5c10.77,4.55,4,16.39-1.22,17.9-5.42,1.53-9-4.95-7-11.94C818.59,624.28,821.6,620.81,825.59,622.5Z"/><path class="cls-4" d="M743.74,630.82a18.35,18.35,0,0,1,13.74-10.43,112.42,112.42,0,0,0,5.45,17.89c0,.67.18,1.11.53,1.25l0,.13a109.77,109.77,0,0,0,4.41,15.6A18.35,18.35,0,0,1,742,638.52,18,18,0,0,1,743.74,630.82Z"/><path class="cls-3" d="M726.17,673.64l-7.57,15.07-27.19,54.13-10,19.83-37.75-9.88,12.9-26.66L683,671.61l10-20.78ZM679,742.75a8,8,0,1,0-11.27.35A8,8,0,0,0,679,742.75Z"/><path class="cls-4" d="M683,671.61l-26.37,54.52-14.47-6.92c-16.64-8-24.25-26.68-17-41.76s26.59-20.84,43.22-12.86Z"/><path class="cls-12" d="M678.64,731.48a8,8,0,1,1-11.29.33A8,8,0,0,1,678.64,731.48Z"/><path class="cls-13" d="M883.2,466.4,866.59,484a9.27,9.27,0,0,1-13.49-12.72l2.93-3.1"/><path class="cls-14" d="M859.47,464.51a16.81,16.81,0,0,1-6.79.51l3.35,3.16,1.29-1.39,2.15-2.28,0,0"/><polygon class="cls-15" points="981.65 521.46 995.31 451.26 866.08 426.16 746.64 458.89 760.39 521.46 750.09 555.21 768.73 555.13 836.82 554.88 845.83 554.85 936.97 554.5 980.27 554.33 994.88 554.27 981.65 521.46"/><path class="cls-15" d="M840.19,671.77s13.91,13.85,34.22,13.85c19.51,0,34.21-13.85,34.21-13.85"/><polyline class="cls-15" points="760.39 521.46 866.85 509.22 981.65 521.46"/><path class="cls-15" d="M836.82,555.21c-40.14,10.17-74,73.21-73.89,83.07,0,.67.18,1.11.53,1.25,0,0-.2-.44-.53-1.25a112.42,112.42,0,0,1-5.45-17.89c-3.82-17.55-5.4-44,11.25-65.24"/><path class="cls-15" d="M845.83,554.85,894,604.74S907.19,591.8,904.53,574c0,0,25.76,5.84,45.46,30.79,0,0,1.54-16.73-3-32-2-6.62-5.09-13-10-17.55"/><path class="cls-15" d="M947,572.76c30.45,20.14,36.65,62,36.65,62a64.77,64.77,0,0,0,5.56-13.56c4.38-14.68,7.36-39.67-8.91-66.89h0"/><path class="cls-15" d="M833.2,721.69a112.11,112.11,0,0,1-65.3-66.43,109.77,109.77,0,0,1-4.41-15.6"/><path class="cls-15" d="M915.34,720.77a112.21,112.21,0,0,1-82.12.92"/><path class="cls-15" d="M983.62,634.78A110.59,110.59,0,0,1,978.07,656q-1.74,4.68-3.88,9.15a112.21,112.21,0,0,1-58.84,55.61"/><path class="cls-15" d="M767.9,655.26A18.35,18.35,0,0,1,742,638.52a18,18,0,0,1,1.71-7.7,18.35,18.35,0,0,1,13.74-10.43h0"/><path class="cls-15" d="M989.18,621.22A18.26,18.26,0,0,1,978.07,656"/><polyline class="cls-15" points="873.11 774.16 873.31 849.8 873.56 947.66"/><polyline class="cls-15" points="833.2 721.69 833.22 721.69 873.11 774.16 915.34 720.77 915.35 720.77"/><polyline class="cls-15" points="833.2 721.68 833.2 721.69 830.81 741.55 825.38 786.88 845.83 789.25 836.82 811.5 873.11 849.98"/><polyline class="cls-15" points="915.35 720.76 915.35 720.77 918.44 741.73 925.09 786.88 904.63 789.25 913.67 811.5 873.31 849.8 873.11 849.98"/><polygon class="cls-15" points="718.6 688.71 726.17 673.64 693 650.83 682.96 671.61 656.59 726.13 643.69 752.79 681.44 762.67 691.41 742.84 718.6 688.71"/><polygon class="cls-15" points="1056.32 743.45 1062.54 756.84 1102.28 747.47 1092.51 726.1 1067.31 671.02 1057.19 648.92 1020.73 666.71 1030.84 688.5 1056.32 743.45"/><path class="cls-15" d="M683,671.61l-14.65-7c-16.63-8-36-2.21-43.22,12.86s.39,33.78,17,41.76l14.47,6.92"/><line class="cls-15" x1="828.13" y1="741.23" x2="718.6" y2="688.71"/><polyline class="cls-15" points="1030.85 688.5 1030.84 688.5 920.49 741.43"/><path class="cls-15" d="M1092.51,726.1l14.38-6.89c16.63-8,24.25-26.68,17-41.76s-26.59-20.84-43.23-12.86L1067.31,671"/><polyline class="cls-15" points="691.41 742.84 812.61 800.97 774.54 947.66 873.56 947.66 971.69 947.66 935.39 801.45 1056.32 743.45 1056.34 743.45"/><path class="cls-15" d="M991,646.62a17.12,17.12,0,0,1,3.46,6.68,13.24,13.24,0,0,1,.6,3.57c0,6.13-7.41,11.09-13.53,11.09a11,11,0,0,1-7.36-2.8"/><polyline class="cls-15" points="734.93 626.37 743.74 630.83 751.58 634.78"/><line class="cls-15" x1="915.25" y1="635.37" x2="930.77" y2="628.85"/></svg>