<svg id="Layer_1" data-name="Layer 1" xmlns="http://www.w3.org/2000/svg" viewBox="0 0 932.39 310.77"><defs><style>.cls-1{fill:#f2f4f8;}.cls-2{fill:#fb4b53;}.cls-11,.cls-12,.cls-13,.cls-14,.cls-15,.cls-17,.cls-19,.cls-21,.cls-23,.cls-3,.cls-6,.cls-7,.cls-9{fill:#242a2e;}.cls-10,.cls-3,.cls-5{opacity:0.14;}.cls-4{fill:#ffa4a9;}.cls-7{opacity:0.08;}.cls-8{fill:#fbfcfc;}.cls-9{opacity:0.2;}.cls-10,.cls-18{fill:#272727;}.cls-11{opacity:0.1;}.cls-12{opacity:0.5;}.cls-13{opacity:0.09;}.cls-14{opacity:0.12;}.cls-15,.cls-18,.cls-20{opacity:0.15;}.cls-16{fill:#ae97f4;}.cls-17{opacity:0.07;}.cls-19{opacity:0.11;}.cls-21{opacity:0.16;}.cls-22{opacity:0.19;}.cls-23{opacity:0.17;}.cls-24{fill:#07192b;}.cls-25{fill:#003d73;}.cls-26{fill:#0072c3;}</style></defs><title>Artboard 23 copy 12</title><rect class="cls-1" y="210.88" width="932.39" height="17.84"/><rect class="cls-2" x="217" y="130.71" width="31.29" height="86.38"/><path class="cls-2" d="M233.26,119.94v-.53h-.6v11.3h.6v-7.83c1.05-.13,2.72.57,3.85.2V120.2C236,120.69,234.26,119.84,233.26,119.94Z"/><rect class="cls-3" x="217" y="130.71" width="15.64" height="86.38"/><path class="cls-4" d="M531.19,216.7h54.15V131.44s0-4-27.08-4-27.07,4-27.07,4Z"/><g class="cls-5"><path class="cls-6" d="M531.19,216.7h27.07V127.44c-27.07,0-27.07,4-27.07,4Z"/></g><rect class="cls-2" x="455.37" y="125.24" width="52.35" height="94.47"/><rect class="cls-7" x="455.37" y="125.24" width="26.17" height="94.47"/><rect class="cls-1" x="167.16" y="76.76" width="1.19" height="15.88"/><rect class="cls-8" x="150" y="117.9" width="2.71" height="97.02"/><rect class="cls-2" x="138.33" y="166.4" width="14.38" height="51.69"/><rect class="cls-2" x="161.57" y="95.76" width="12.36" height="12.76"/><polygon class="cls-1" points="175.64 107.87 175.64 104.35 159.86 104.35 159.86 107.87 156.92 107.87 156.92 114.6 178.58 114.6 178.58 107.87 175.64 107.87"/><rect class="cls-4" x="152.71" y="114.6" width="30.09" height="103.49"/><rect class="cls-2" x="162.07" y="114.6" width="11.36" height="103.49"/><rect class="cls-4" x="164.97" y="92.63" width="5.57" height="17.79"/><rect class="cls-1" x="182.79" y="117.9" width="2.71" height="97.02"/><rect class="cls-9" x="138.33" y="166.4" width="7.19" height="51.69"/><polygon class="cls-3" points="164.97 92.63 164.97 95.75 161.57 95.75 161.57 104.35 159.86 104.35 159.86 107.87 156.92 107.87 156.92 114.6 152.71 114.6 152.71 218.09 167.75 218.09 167.75 114.6 167.75 104.35 167.75 104.35 167.75 95.75 167.75 92.63 164.97 92.63"/><rect class="cls-10" x="150" y="117.9" width="2.71" height="48.51"/><path class="cls-1" d="M660.21,209.15s38.6-104.49,121.12-133.73c0,0-1,85.41-4.32,135Z"/><path class="cls-11" d="M660.21,209.15l12.28.13c19.58-55.16,61.84-106.5,61.84-106.5C684.06,144.61,660.21,209.15,660.21,209.15Z"/><path class="cls-2" d="M703.23,217.64s26.9-103.22,76.41-139.15c0,0-1,83.57-4.22,132.06Z"/><path class="cls-12" d="M703.23,217.64s26.9-103.22,76.41-139.15c0,0-29.25,60-43,135.87Z"/><path class="cls-1" d="M746.86,128l14.48,8.5a137.76,137.76,0,0,1,69.11-24.36s-.55,49-.55,99.05l-122.7-.31S739.9,128.4,746.86,128Z"/><path class="cls-13" d="M746.86,128l14.48,8.5A137,137,0,0,1,809,115.37s-57,38-60,94.72l-41.79.79S739.9,128.4,746.86,128Z"/><path class="cls-13" d="M746.86,128l14.48,8.5c-30.34,35.34-32.72,74-32.72,74l-21.42.4S739.9,128.4,746.86,128Z"/><path class="cls-2" d="M752,217.64s36.36-87.41,76-102.2c0,0-.53,47.44-.53,95.95Z"/><path class="cls-12" d="M752,217.64s36.36-87.41,76-102.2c0,0-45.43,59.4-55,100.47Z"/><path class="cls-1" d="M758.09,208.87s26.36-46.79,44.43-66L823,145.29c19.75-8.19,45.68-15,74.54-12.15,0,0-8.9,29.18-22.65,78.78Z"/><path class="cls-14" d="M758.09,208.87s26.36-46.79,44.43-66L823,145.29S799.8,150.76,758.09,208.87Z"/><path class="cls-2" d="M809,209.05s44.84-56.92,83.36-71.3c0,0-8.38,27.48-21.33,74.17Z"/><path class="cls-12" d="M809,209.05s44.84-56.92,83.36-71.3c0,0-29.11,45.18-39.58,73.32Z"/><path class="cls-4" d="M758.4,207l-2.72-1.27c11.12-23.68,40.37-80,71.79-91.73l2-.77,0,2.19s-.12,11.18-.25,28.22l-3,0c.09-12.54.18-21.9.23-26C796.85,130.67,769.11,184.23,758.4,207Z"/><path class="cls-4" d="M814.36,204.9l-2.3-1.93c40.68-48.44,69.36-62.73,79.8-66.62l2.84-1.06-.88,2.9c-.08.25-7.59,24.89-19.15,66.33l-2.89-.81c9.27-33.23,15.94-55.67,18.27-63.41C859.2,153.4,824.5,192.83,814.36,204.9Z"/><path class="cls-4" d="M708.63,204.56l-2.86-.9c9-28.58,34-98.12,73-126.38l2.41-1.75,0,3c0,.21-.25,21.14-.89,47.72l-3-.07c.49-20.65.76-37.88.85-44.63C741.26,110.35,717.32,176.86,708.63,204.56Z"/><rect class="cls-2" x="588.35" y="134.99" width="25.27" height="70.1"/><rect class="cls-3" x="588.35" y="134.99" width="12.64" height="70.1"/><rect class="cls-4" x="512" y="147.19" width="22.97" height="75.51"/><rect class="cls-15" x="512" y="147.19" width="11.49" height="75.51"/><rect class="cls-16" x="398.21" y="175.38" width="24.07" height="39.71"/><path class="cls-1" d="M558.41,211.92s4.34-39.11,24.59-58.84C593.81,142.56,610.5,142,610.5,142c20.23-27.57,43.48-55.32,62-66.57,0,0,36.42,85.41,33.1,135Z"/><path class="cls-7" d="M558.41,211.92s4.34-39.11,24.59-58.84C593.81,142.56,610.5,142,610.5,142c-20.41,35.51-25.06,69.65-25.06,69.65Z"/><path class="cls-2" d="M594.39,217.64S621.3,114.42,670.8,78.49c0,0,35.63,83.57,32.39,132.06Z"/><path class="cls-12" d="M670.8,78.49c-49.5,35.93-76.41,139.15-76.41,139.15l1.89-.12,28-39.22,49.26-93.1C671.84,80.94,670.8,78.49,670.8,78.49Z"/><path class="cls-1" d="M630.4,136.5l7.06,4.8c14-14.74,31.72-24.9,57.53-29.16,0,0,39.59,49,39.59,99.05L601,210.45S625.12,140.29,630.4,136.5Z"/><path class="cls-14" d="M630.4,136.5l7.06,4.8c-15.15,16-23.83,69.22-23.83,69.22L601,210.45S625.12,140.29,630.4,136.5Z"/><path class="cls-2" d="M620.54,217.64s32.36-87.41,72-102.2c0,0,38.47,47.44,38.47,95.95Z"/><path class="cls-12" d="M620.54,217.64s32.36-87.41,72-102.2l-32.33,100Z"/><path class="cls-1" d="M672.47,137.75l9.27,7.24c16-7.88,32-12.83,56.83-11.85,0,0,22.6,28.7,22.6,78.78l-138.19,3S660.44,140.84,672.47,137.75Z"/><path class="cls-17" d="M672.47,137.75l9.27,7.24c-23.62,12.32-52.51,69.76-52.51,69.76l-6.25.13S660.44,140.84,672.47,137.75Z"/><path class="cls-2" d="M650,209s45.6-57.88,84.77-72.5c0,0,21.63,27.48,21.63,75.42Z"/><path class="cls-12" d="M650,209s45.6-57.88,84.77-72.5c0,0-29.44,27.09-41.28,73.69Z"/><path class="cls-4" d="M757.42,211.92h-2c0-43.28-17.94-70-21-74.21-38.31,14.78-83.18,71.33-83.64,71.91l-1.57-1.24c.46-.58,46.23-58.27,85.21-72.81l.68-.26.46.57C735.79,136.16,757.42,164.19,757.42,211.92Z"/><path class="cls-4" d="M621.48,218l-1.88-.69a383.82,383.82,0,0,1,21.2-45.69c17.43-31.67,34.72-50.88,51.38-57.1l.68-.25.45.55a198.8,198.8,0,0,1,13.67,20l-1.71,1a202.76,202.76,0,0,0-13.07-19.21C653.76,131.85,621.8,217.13,621.48,218Z"/><path class="cls-4" d="M597.26,211.17l-1.92-.58c7.19-23.65,33.82-103.11,74.87-132.91l1-.73.49,1.15c.06.15,6.49,15.27,13.55,36l-1.9.64C677.46,97.39,672,84,670.37,80.05,630.39,110.05,604.33,187.87,597.26,211.17Z"/><rect class="cls-2" x="291.71" y="87.73" width="43.32" height="132.98"/><rect class="cls-3" x="291.71" y="87.73" width="21.66" height="132.98"/><rect class="cls-2" x="255.07" y="76.59" width="28.75" height="14.75"/><rect class="cls-4" x="247.18" y="91.34" width="44.53" height="125.76"/><rect class="cls-1" x="268.85" y="52" width="1.19" height="27.05"/><rect class="cls-15" x="247.18" y="91.34" width="22.26" height="125.76"/><rect class="cls-18" x="249.33" y="71.37" width="20.14" height="19.97"/><polygon class="cls-4" points="249.33 71.37 249.33 91.34 252.14 91.34 252.14 74.15 286.75 74.15 286.75 91.34 289.55 91.34 289.55 71.37 249.33 71.37"/><rect class="cls-1" x="264.68" y="68.55" width="2.38" height="22.79"/><rect class="cls-1" x="271.83" y="68.55" width="2.38" height="22.79"/><path class="cls-2" d="M178.09,221.7h31.07V109.64s-6.31,19.52-31.07,29.13Z"/><rect class="cls-1" x="193.03" y="98.66" width="1.19" height="32.05"/><g class="cls-5"><path class="cls-6" d="M178.09,138.78V221.7h15.53V130A59.74,59.74,0,0,1,178.09,138.78Z"/></g><rect class="cls-1" x="231.69" y="151.1" width="34.9" height="71.6"/><rect class="cls-11" x="231.69" y="151.1" width="17.45" height="71.6"/><rect class="cls-4" x="347.66" y="154.12" width="43.93" height="65.59"/><rect class="cls-4" x="358.61" y="148.76" width="22.03" height="5.36"/><path class="cls-1" d="M375.66,135v-.54h-.59v14.31h.59V137.92c1.06-.13,2.72.57,3.86.2v-2.88C378.41,135.73,376.67,134.89,375.66,135Z"/><path class="cls-1" d="M364.21,135v-.54h-.6v14.31h.6V137.92c1.05-.13,2.72.57,3.85.2v-2.88C367,135.73,365.21,134.89,364.21,135Z"/><polygon class="cls-19" points="358.61 148.75 358.61 154.12 347.67 154.12 347.67 219.71 369.63 219.71 369.63 154.12 369.63 148.75 358.61 148.75"/><polygon class="cls-4" points="349.02 168.36 342.09 164.93 335.39 164.93 328.46 168.36 325.39 168.36 325.39 202.94 352.09 202.94 352.09 168.36 349.02 168.36"/><g class="cls-20"><polygon class="cls-6" points="338.74 164.93 335.39 164.93 328.46 168.36 325.39 168.36 325.39 202.94 338.74 202.94 338.74 164.93"/></g><rect class="cls-4" x="114.06" y="142.31" width="24.27" height="79.39"/><rect class="cls-1" x="136.14" y="83.59" width="1.19" height="58.72"/><rect class="cls-1" x="115.06" y="83.59" width="1.19" height="58.72"/><rect class="cls-1" x="125.6" y="97.8" width="1.19" height="22.27" transform="translate(235.13 -17.25) rotate(90)"/><rect class="cls-1" x="125.6" y="87.47" width="1.19" height="22.27" transform="translate(224.8 -27.59) rotate(90)"/><polygon class="cls-1" points="127.77 108.34 137.33 98.78 136.49 97.94 126.19 108.24 115.9 97.94 115.06 98.78 124.62 108.34 127.77 108.34"/><rect class="cls-1" x="125.6" y="108.2" width="1.19" height="22.27" transform="translate(245.54 -6.85) rotate(90)"/><polygon class="cls-1" points="127.77 118.75 137.33 109.19 136.49 108.34 126.19 118.64 115.9 108.34 115.06 109.19 124.62 118.75 127.77 118.75"/><rect class="cls-1" x="125.6" y="118.61" width="1.19" height="22.27" transform="translate(255.94 3.55) rotate(90)"/><polygon class="cls-1" points="127.77 129.15 137.33 119.59 136.49 118.75 126.19 129.04 115.9 118.75 115.06 119.59 124.62 129.15 127.77 129.15"/><rect class="cls-1" x="125.6" y="129.01" width="1.19" height="22.27" transform="translate(266.34 13.95) rotate(90)"/><polygon class="cls-1" points="127.77 139.55 137.33 129.99 136.49 129.15 126.19 139.45 115.9 129.15 115.06 129.99 124.62 139.55 127.77 139.55"/><rect class="cls-21" x="114.06" y="142.31" width="12.14" height="79.39"/><rect class="cls-1" x="310.16" y="187.2" width="48.46" height="35.5"/><rect class="cls-13" x="310.16" y="187.2" width="24.23" height="35.5"/><path class="cls-4" d="M422.28,219.09H398.21V141.47s0-3,12-3c11.68,0,12,3,12,3Z"/><g class="cls-22"><path class="cls-6" d="M410.24,219.09h-12V141.47s0-3,12-3Z"/></g><rect class="cls-1" x="416.36" y="182.39" width="45.73" height="40.31"/><rect class="cls-7" x="416.36" y="182.39" width="22.87" height="40.31"/><polygon class="cls-4" points="751.12 222.31 896.52 222.31 886.52 200.4 761.12 200.4 751.12 222.31"/><rect class="cls-2" x="35.37" y="171.17" width="40.92" height="47.54"/><rect class="cls-23" x="35.37" y="171.17" width="20.46" height="47.54"/><rect class="cls-4" x="73.88" y="163.13" width="31.29" height="59.57"/><rect class="cls-3" x="73.88" y="163.13" width="15.64" height="59.57"/><rect class="cls-1" x="55.83" y="192.92" width="25.87" height="29.78"/><rect class="cls-3" x="55.83" y="192.92" width="12.94" height="29.4"/><rect class="cls-2" x="391.59" y="187.2" width="19.25" height="35.5"/><rect class="cls-13" x="391.59" y="187.2" width="9.63" height="35.5"/><polygon class="cls-4" points="638.89 222.31 778.83 222.31 768.83 204.11 648.89 204.11 638.89 222.31"/><polygon class="cls-2" points="909.5 222.31 544.49 222.31 561.33 209.15 899.5 209.15 909.5 222.31"/><rect class="cls-24" x="37.93" y="202.28" width="5.32" height="22.44"/><rect class="cls-24" x="58.58" y="204.51" width="5.32" height="22.44"/><rect class="cls-24" x="86.38" y="204.51" width="5.32" height="22.44"/><rect class="cls-24" x="108.06" y="204.51" width="5.32" height="22.44"/><rect class="cls-24" x="115.58" y="202.5" width="5.32" height="22.44"/><rect class="cls-24" x="158.22" y="205.87" width="5.32" height="22.44"/><rect class="cls-24" x="176.27" y="202.66" width="5.32" height="22.44"/><rect class="cls-24" x="195.32" y="205.87" width="5.32" height="22.44"/><rect class="cls-24" x="231.23" y="203.87" width="5.32" height="22.44"/><rect class="cls-24" x="266.09" y="205.48" width="5.32" height="22.44"/><rect class="cls-24" x="295.12" y="206.42" width="5.32" height="22.44"/><rect class="cls-24" x="388.2" y="205.87" width="5.32" height="22.44"/><rect class="cls-24" x="401.84" y="215.05" width="5.32" height="22.44"/><rect class="cls-24" x="415.71" y="205.87" width="5.32" height="22.44"/><rect class="cls-24" x="460.32" y="203.66" width="5.32" height="22.44"/><rect class="cls-24" x="472.7" y="211.09" width="5.32" height="22.44"/><rect class="cls-24" x="507.23" y="203.66" width="5.32" height="22.44"/><rect class="cls-24" x="528.12" y="206.42" width="5.32" height="22.44"/><rect class="cls-24" x="544.07" y="203.66" width="5.32" height="22.44"/><ellipse class="cls-25" cx="43.24" cy="198.2" rx="14.59" ry="11.99"/><ellipse class="cls-25" cx="61.24" cy="205.12" rx="9.53" ry="8.76"/><ellipse class="cls-25" cx="94.86" cy="205.87" rx="12.47" ry="11.12"/><ellipse class="cls-25" cx="118.24" cy="200.89" rx="15.82" ry="11.99"/><ellipse class="cls-25" cx="160.87" cy="207.63" rx="16.95" ry="13.69"/><ellipse class="cls-25" cx="174.28" cy="203.48" rx="9.97" ry="9.41"/><ellipse class="cls-25" cx="197.98" cy="209.72" rx="13.18" ry="11"/><ellipse class="cls-25" cx="184.79" cy="205.48" rx="9.77" ry="9"/><ellipse class="cls-25" cx="238.72" cy="208.5" rx="11.94" ry="10.3"/><ellipse class="cls-25" cx="268.75" cy="206.82" rx="15.46" ry="12.88"/><ellipse class="cls-25" cx="226.77" cy="208.82" rx="7.12" ry="7.27"/><ellipse class="cls-25" cx="110.71" cy="211.21" rx="10.48" ry="9.5"/><ellipse class="cls-25" cx="82.46" cy="207.9" rx="9.24" ry="9.19"/><ellipse class="cls-25" cx="291.79" cy="211.42" rx="10.06" ry="9.22"/><ellipse class="cls-25" cx="304.54" cy="211.42" rx="7.95" ry="7.48"/><ellipse class="cls-25" cx="390.86" cy="206.9" rx="9.35" ry="8.19"/><ellipse class="cls-25" cx="404.5" cy="210.89" rx="10.91" ry="8.39"/><ellipse class="cls-25" cx="418.36" cy="205.82" rx="14.79" ry="12.41"/><ellipse class="cls-25" cx="546.73" cy="201.98" rx="13.54" ry="11.9"/><ellipse class="cls-25" cx="530.68" cy="209.06" rx="11.94" ry="9.65"/><ellipse class="cls-25" cx="509.89" cy="201.28" rx="18.23" ry="15.37"/><ellipse class="cls-25" cx="462.98" cy="204.06" rx="12.38" ry="9.82"/><ellipse class="cls-25" cx="475.36" cy="211.25" rx="11.27" ry="9.98"/><ellipse class="cls-25" cx="32.94" cy="200.84" rx="10.3" ry="9.05"/></svg>